#!OML:ASF E:\Mandelcareful walks\Project 1\Capture day 1\Session 1\Subject1.ASF
:FULLY-SPECIFIED
:DEGREES
1671
root -24.0869 16.5457 1.08931 366.77 5.58741 361.76
lowerback -7.93783 -0.730828 0.12575
upperback 1.03748 -1.0617 1.36451
thorax 5.56189 -0.541952 1.21661
lowerneck -19.9971 7.40437 4.94593
upperneck 38.5887 13.2885 -8.1437
head 19.153 4.90196 -1.77848
rclavicle 6.90777e-015 -1.03368e-014
rhumerus -41.7591 -19.0287 -68.5232
rradius 24.7306
rwrist -2.77581
rhand -10.5538 -31.8469
rfingers 7.12502
rthumb 15.4503 -61.2495
lclavicle 6.90777e-015 -1.03368e-014
lhumerus -24.8165 -9.18306 94.0616
lradius 31.8547
lwrist 13.3232
lhand -22.732 -13.4042
lfingers 7.12502
lthumb 3.70186 16.5434
rfemur -26.1468 9.46047 4.47051
rtibia 25.3683
rfoot -10.5821 10.01
rtoes -12.0844
lfemur -1.14103 -14.4871 -27.9293
ltibia 23.698
lfoot -3.89489 -27.8253
ltoes 36.2289
1672
root -24.125 16.5402 1.16763 366.788 6.56551 362.135
lowerback -7.82728 -0.719276 -0.1539
upperback 1.06988 -1.01259 1.25587
thorax 5.53489 -0.524792 1.26791
lowerneck -19.8566 7.44189 5.09268
upperneck 38.4261 13.3564 -8.30783
head 19.0606 4.94424 -1.8644
rclavicle -2.46493e-014 6.36111e-015
rhumerus -41.529 -19.3826 -68.1845
rradius 24.4475
rwrist -1.98976
rhand -10.2294 -31.2337
rfingers 7.12502
rthumb 15.7628 -60.6118
lclavicle -2.46493e-014 6.36111e-015
lhumerus -24.9787 -8.7135 93.7176
lradius 31.1575
lwrist 13.0725
lhand -22.2051 -13.9496
lfingers 7.12502
lthumb 4.21074 15.9885
rfemur -25.5958 9.4235 4.2565
rtibia 25.6562
rfoot -11.3249 8.88728
rtoes -10.6917
lfemur -1.0447 -14.7426 -28.0226
ltibia 24.1692
lfoot -3.41796 -28.3713
ltoes 36.7896
1673
root -24.1627 16.5284 1.24927 366.812 7.59292 362.344
lowerback -7.75903 -0.728197 -0.210145
upperback 1.0758 -1.01666 1.21773
thorax 5.50272 -0.527874 1.25996
lowerneck -19.5972 7.44992 5.08655
upperneck 38.236 13.4466 -8.49048
head 18.9103 4.97617 -1.93094
rclavicle 1.50579e-014 -1.27222e-014
rhumerus -41.2946 -19.4241 -68.0153
rradius 24.1789
rwrist -2.11749
rhand -10.0626 -31.2136
rfingers 7.12502
rthumb 15.9234 -60.579
lclavicle 1.50579e-014 -1.27222e-014
lhumerus -25.1524 -7.83562 93.3038
lradius 30.4051
lwrist 12.6424
lhand -21.4052 -14.6563
lfingers 7.12502
lthumb 4.98314 15.2651
rfemur -25.1451 9.17328 4.28856
rtibia 26.0488
rfoot -12.2056 6.82734
rtoes -12.7638
lfemur -0.921788 -14.9414 -27.9342
ltibia 24.5899
lfoot -2.9756 -28.8711
ltoes 36.9515
1674
root -24.2011 16.5251 1.33144 366.783 8.63402 362.435
lowerback -7.59579 -0.716412 -0.216856
upperback 1.07283 -1.00078 1.24254
thorax 5.40719 -0.520416 1.29318
lowerneck -19.3795 7.45395 5.00855
upperneck 38.131 13.5302 -8.57733
head 18.8026 5.00464 -1.94177
rclavicle -1.51573e-014 -7.95139e-016
rhumerus -41.1141 -19.5629 -67.71
rradius 23.9349
rwrist -1.91988
rhand -10.3768 -31.4312
rfingers 7.12502
rthumb 15.6208 -60.8205
lclavicle -1.51573e-014 -7.95139e-016
lhumerus -25.4299 -7.35576 93.1058
lradius 29.7192
lwrist 11.979
lhand -21.8883 -14.2052
lfingers 7.12502
lthumb 4.51663 15.7266
rfemur -24.6632 8.90417 4.51867
rtibia 26.4515
rfoot -12.6582 4.88919
rtoes -16.4108
lfemur -0.796027 -14.9687 -27.7069
ltibia 25.0721
lfoot -3.07639 -29.391
ltoes 35.8195
1675
root -24.2439 16.5252 1.40826 366.848 9.89194 362.313
lowerback -7.38162 -0.735613 -0.0834214
upperback 0.956331 -1.03908 1.29938
thorax 5.16347 -0.535218 1.27529
lowerneck -19.187 7.4571 5.01909
upperneck 38.123 13.5232 -8.51043
head 18.7361 5.02782 -1.91777
rclavicle -2.83268e-015 0
rhumerus -41.0225 -19.8255 -67.3963
rradius 23.6264
rwrist -1.47043
rhand -10.7824 -31.6715
rfingers 7.12502
rthumb 15.2301 -61.0909
lclavicle -2.83268e-015 0
lhumerus -25.9464 -7.32151 92.9425
lradius 29.2944
lwrist 11.6345
lhand -22.6711 -13.186
lfingers 7.12502
lthumb 3.76072 16.7605
rfemur -24.2231 8.41166 5.03246
rtibia 26.748
rfoot -12.6145 3.60989
rtoes -17.8518
lfemur -0.999708 -14.8646 -27.106
ltibia 25.752
lfoot -2.48441 -30.1272
ltoes 35.6104
1676
root -24.2876 16.5379 1.48148 366.943 11.2714 362.152
lowerback -7.29564 -0.748897 0.158793
upperback 0.922776 -1.07584 1.26523
thorax 5.0753 -0.545646 1.10034
lowerneck -19.1422 7.47237 5.41448
upperneck 38.0861 13.4782 -8.67542
head 18.7588 5.05442 -2.07251
rclavicle 2.55438e-014 2.38542e-015
rhumerus -40.8392 -20.5434 -67.1533
rradius 23.2495
rwrist -0.992021
rhand -12.7795 -31.4241
rfingers 7.12502
rthumb 13.3058 -60.9793
lclavicle 2.55438e-014 2.38542e-015
lhumerus -26.7322 -8.17386 92.5729
lradius 29.5112
lwrist 12.3327
lhand -22.371 -13.3632
lfingers 7.12502
lthumb 4.05048 16.5781
rfemur -23.758 7.94897 5.57664
rtibia 26.9486
rfoot -12.6254 2.69969
rtoes -16.2675
lfemur -1.38529 -14.7401 -26.3705
ltibia 26.598
lfoot -1.78119 -30.7692
ltoes 35.2601
1677
root -24.3291 16.5409 1.55703 367.025 12.5312 361.995
lowerback -7.2565 -0.740369 0.443423
upperback 0.898163 -1.08862 1.25517
thorax 5.02209 -0.543642 0.928984
lowerneck -19.2553 7.54091 6.01144
upperneck 38.1471 13.5692 -9.09903
head 18.9593 5.12006 -2.35213
rclavicle -3.94091e-014 8.74653e-015
rhumerus -40.6537 -21.3403 -66.7225
rradius 22.8642
rwrist -0.154969
rhand -14.5915 -31.5408
rfingers 7.12502
rthumb 11.5588 -61.2021
lclavicle -3.94091e-014 8.74653e-015
lhumerus -26.3883 -6.67554 91.7328
lradius 27.8056
lwrist 10.9097
lhand -22.4166 -13.9996
lfingers 7.12502
lthumb 4.00647 15.9425
rfemur -23.3506 7.63233 6.11076
rtibia 27.156
rfoot -13.0422 1.82576
rtoes -15.1958
lfemur -1.80136 -14.6629 -25.6649
ltibia 27.4941
lfoot -1.17628 -31.1497
ltoes 34.9149
1678
root -24.3648 16.5418 1.63546 367.061 13.653 361.956
lowerback -7.21504 -0.752321 0.590928
upperback 0.920227 -1.11993 1.30673
thorax 5.0204 -0.555692 0.896462
lowerneck -19.0863 7.56706 5.89006
upperneck 38.0294 13.6932 -9.163
head 18.8552 5.159 -2.33209
rclavicle 3.77194e-014 1.43125e-014
rhumerus -40.2735 -21.7105 -66.3304
rradius 22.449
rwrist 0.637075
rhand -13.3434 -32.2913
rfingers 7.12502
rthumb 12.7622 -61.8813
lclavicle 3.77194e-014 1.43125e-014
lhumerus -25.2541 -2.58892 90.5245
lradius 24.6814
lwrist 6.76999
lhand -23.5076 -14.7795
lfingers 7.12502
lthumb 2.9529 15.1798
rfemur -22.8714 7.37721 6.48853
rtibia 27.3364
rfoot -13.4517 0.970527
rtoes -15.6024
lfemur -2.23362 -14.6596 -25.1607
ltibia 28.5267
lfoot -0.401547 -31.4341
ltoes 35.0991
1679
root -24.3966 16.5595 1.71444 366.972 14.7154 361.747
lowerback -7.08088 -0.717976 0.864569
upperback 0.976858 -1.10209 1.41187
thorax 5.00048 -0.540678 0.855313
lowerneck -18.9725 7.6216 5.83335
upperneck 37.9229 13.8266 -9.20591
head 18.778 5.21173 -2.30941
rclavicle -3.86636e-014 6.36111e-015
rhumerus -39.9148 -21.8867 -66.0603
rradius 22.1259
rwrist 0.976789
rhand -12.033 -31.9562
rfingers 7.12502
rthumb 14.0252 -61.463
lclavicle -3.86636e-014 6.36111e-015
lhumerus -23.4141 2.0292 89.1572
lradius 20.3007
lwrist 2.03443
lhand -24.6035 -16.0896
lfingers 7.12502
lthumb 1.89448 13.8818
rfemur -22.2177 7.36023 6.95222
rtibia 27.4666
rfoot -13.6059 0.215916
rtoes -13.9681
lfemur -2.72129 -14.4671 -24.543
ltibia 29.7503
lfoot 0.374604 -31.7608
ltoes 34.8086
1680
root -24.4285 16.5715 1.79018 366.795 15.7003 361.618
lowerback -6.82058 -0.614288 1.05833
upperback 1.06552 -0.97838 1.43842
thorax 4.94173 -0.474552 0.790305
lowerneck -18.7847 7.67328 5.89778
upperneck 37.777 13.9 -9.24232
head 18.6609 5.26423 -2.3197
rclavicle 4.17448e-015 -1.43125e-014
rhumerus -39.6837 -22.3785 -65.6925
rradius 21.8544
rwrist 1.35703
rhand -11.7746 -31.8341
rfingers 7.12502
rthumb 14.2742 -61.3235
lclavicle 4.17448e-015 -1.43125e-014
lhumerus -21.152 7.01009 87.5246
lradius 14.9908
lwrist -2.91086
lhand -25.3183 -18.1171
lfingers 7.12502
lthumb 1.20414 11.8593
rfemur -21.4733 7.28681 7.34238
rtibia 27.5693
rfoot -13.909 -0.324078
rtoes -10.4706
lfemur -3.12698 -13.835 -24.0958
ltibia 31.1702
lfoot 0.290158 -32.2227
ltoes 32.7212
1681
root -24.4667 16.5618 1.86092 366.649 16.835 361.73
lowerback -6.46901 -0.61075 0.987068
upperback 1.14426 -0.960317 1.3993
thorax 4.82498 -0.467474 0.794895
lowerneck -18.608 7.76657 6.00178
upperneck 37.6548 14.039 -9.30239
head 18.5782 5.34362 -2.33334
rclavicle -1.98785e-016 4.13472e-014
rhumerus -39.4033 -22.9663 -65.292
rradius 21.4864
rwrist 1.98233
rhand -11.7028 -32.2493
rfingers 7.12502
rthumb 14.3434 -61.7338
lclavicle -1.98785e-016 4.13472e-014
lhumerus -19.1836 13.269 85.9695
lradius 9.59673
lwrist -9.1092
lhand -26.9357 -20.4127
lfingers 7.12502
lthumb -0.357993 9.56675
rfemur -20.7382 6.83232 7.61616
rtibia 27.643
rfoot -14.3297 -0.967993
rtoes -8.98629
lfemur -3.59804 -13.6657 -23.7594
ltibia 32.7543
lfoot 1.52129 -32.4858
ltoes 32.5749
1682
root -24.5086 16.5424 1.92932 366.627 17.9915 362.011
lowerback -6.13297 -0.651595 0.74554
upperback 1.18992 -0.986945 1.3245
thorax 4.68499 -0.486769 0.853473
lowerneck -18.6555 7.83837 6.04478
upperneck 37.6041 14.1342 -9.28077
head 18.5743 5.39487 -2.30288
rclavicle 5.86415e-015 2.14687e-014
rhumerus -39.118 -22.9521 -65.2585
rradius 21.252
rwrist 2.17953
rhand -12.0753 -32.3929
rfingers 7.12502
rthumb 13.9844 -61.9026
lclavicle 5.86415e-015 2.14687e-014
lhumerus -21.4336 19.1307 83.017
lradius 11.4985
lwrist -14.8844
lhand -25.1839 -20.2007
lfingers 7.12502
lthumb 1.33399 9.77483
rfemur -20.0838 6.102 7.74833
rtibia 27.5652
rfoot -14.569 -1.66504
rtoes -10.336
lfemur -4.38292 -13.384 -23.5607
ltibia 34.5547
lfoot 3.24065 -32.9115
ltoes 33.0182
1683
root -24.5452 16.5401 1.9996 366.677 19.0812 362.238
lowerback -5.89682 -0.620995 0.599033
upperback 1.22334 -0.927515 1.2266
thorax 4.58595 -0.460222 0.842515
lowerneck -18.8043 7.84224 6.12555
upperneck 37.602 14.0933 -9.2197
head 18.6065 5.39707 -2.29004
rclavicle -2.00773e-014 2.46493e-014
rhumerus -38.9574 -22.9564 -65.2123
rradius 21.1294
rwrist 2.38623
rhand -12.2696 -32.4096
rfingers 7.12502
rthumb 13.7972 -61.9321
lclavicle -2.00773e-014 2.46493e-014
lhumerus -22.7964 16.9887 82.9822
lradius 13.4962
lwrist -12.4607
lhand -23.9191 -18.9614
lfingers 7.12502
lthumb 2.55553 11.003
rfemur -19.4621 5.51222 7.83336
rtibia 27.3985
rfoot -14.7274 -2.15265
rtoes -10.8433
lfemur -5.29068 -13.1727 -23.3246
ltibia 36.3914
lfoot 4.61005 -32.9911
ltoes 33.3752
1684
root -24.5723 16.5589 2.06808 366.609 20.1705 362.094
lowerback -5.68965 -0.533066 0.861534
upperback 1.27507 -0.827523 1.23533
thorax 4.51782 -0.403761 0.715609
lowerneck -18.8617 7.84576 6.16886
upperneck 37.5656 14.0832 -9.19831
head 18.6 5.40659 -2.28438
rclavicle -1.45113e-014 -2.38542e-015
rhumerus -38.7667 -23.4679 -64.7558
rradius 20.8658
rwrist 3.20371
rhand -12.1459 -31.9703
rfingers 7.12502
rthumb 13.9164 -61.4846
lclavicle -1.45113e-014 -2.38542e-015
lhumerus -23.8375 13.4976 83.5715
lradius 15.4905
lwrist -8.03007
lhand -24.143 -16.9134
lfingers 7.12502
lthumb 2.33929 13.0535
rfemur -18.8955 5.13012 8.26142
rtibia 27.4025
rfoot -14.9379 -2.60588
rtoes -10.4105
lfemur -5.96007 -14.138 -22.6381
ltibia 38.0764
lfoot 6.19116 -31.9063
ltoes 34.2854
